<?xml version="1.0" standalone="no"?>
<!DOCTYPE svg PUBLIC "-//W3C//DTD SVG 20010904//EN"
 "http://www.w3.org/TR/2001/REC-SVG-20010904/DTD/svg10.dtd">
<svg version="1.0" xmlns="http://www.w3.org/2000/svg"
 width="700.000000pt" height="700.000000pt" viewBox="0 0 700.000000 700.000000"
 preserveAspectRatio="xMidYMid meet">
<metadata>
Created by potrace 1.11, written by Peter Selinger 2001-2013
</metadata>
<g transform="translate(0.000000,700.000000) scale(0.100000,-0.100000)"
fill="#000000" stroke="none">
<path d="M3913 5751 c-492 -339 -877 -865 -1057 -1446 -23 -73 -63 -231 -71
-280 -2 -11 -8 -47 -14 -80 -28 -164 -38 -306 -35 -490 7 -454 100 -829 304
-1230 168 -331 363 -580 653 -837 99 -88 257 -205 300 -223 31 -13 36 -12 68
9 88 61 229 279 284 441 22 65 8 110 -43 145 -306 210 -575 541 -727 896 -57
133 -80 206 -111 354 -8 41 -17 83 -20 93 -5 16 7 17 165 17 158 0 173 2 191
20 11 11 21 25 21 30 1 6 2 13 3 18 1 4 6 30 10 57 26 157 24 311 -7 489 -17
97 -28 102 -225 101 -179 -1 -167 -16 -123 151 97 368 284 696 551 965 83 85
150 142 295 253 36 28 37 30 31 75 -8 58 -89 225 -162 333 -68 101 -155 188
-187 188 -13 0 -55 -22 -94 -49z"/>
<path d="M5355 4949 c-113 -15 -144 -21 -230 -45 -265 -71 -481 -198 -675
-395 -224 -227 -368 -521 -410 -839 -12 -85 -14 -318 -5 -375 3 -16 8 -48 10
-70 7 -53 49 -207 80 -289 146 -389 483 -721 872 -860 271 -97 567 -116 842
-55 357 80 668 286 882 585 131 182 229 418 255 609 3 28 9 54 11 59 10 15 11
299 2 366 -15 110 -19 132 -35 195 -66 255 -215 520 -384 680 -23 22 -52 51
-63 64 -24 25 -168 132 -220 163 -60 35 -232 116 -280 132 -80 27 -187 53
-267 66 -84 14 -309 19 -385 9z m290 -672 c286 -42 560 -277 642 -551 48 -158
53 -349 14 -484 -89 -306 -349 -529 -674 -579 -69 -11 -207 -6 -283 10 -322
69 -573 326 -634 650 -19 95 -12 296 11 340 6 9 8 17 5 17 -10 0 35 116 70
179 167 306 499 469 849 418z"/>
<path d="M164 4839 c-25 -27 -20 -114 12 -244 34 -139 130 -339 177 -370 18
-12 116 -14 607 -14 545 0 585 -1 597 -17 24 -33 13 -53 -74 -146 -48 -51 -92
-98 -98 -104 -9 -10 -257 -273 -315 -334 -43 -46 -263 -281 -299 -319 -18 -20
-59 -63 -90 -96 -31 -33 -84 -89 -117 -125 -32 -36 -99 -110 -148 -163 -121
-132 -144 -166 -173 -249 -75 -214 38 -446 259 -535 40 -16 128 -18 1130 -20
l1086 -4 21 27 c12 15 19 34 17 43 -3 9 -8 41 -11 71 -18 156 -117 401 -193
473 l-30 28 -593 0 c-327 0 -604 3 -616 6 -17 4 -23 12 -23 32 0 28 0 28 325
366 100 105 201 210 225 235 23 25 84 88 134 141 50 52 148 156 217 230 437
464 436 462 457 614 23 163 -77 359 -222 432 -119 60 -36 56 -1189 58 -995 1
-1058 0 -1073 -16z"/>
</g>
</svg>
